<!--?xml version="1.0" standalone="no"?-->
              <svg id="sw-js-blob-svg" viewBox="0 0 100 100" xmlns="http://www.w3.org/2000/svg" version="1.1">
                    <defs> 
                        <linearGradient id="sw-gradient" x1="0" x2="1" y1="1" y2="0">
                            <stop id="stop1" stop-color="rgba(27, 153, 139, 1)" offset="0%"></stop>
                            <stop id="stop2" stop-color="rgba(10, 25, 47, 1)" offset="100%"></stop>
                        </linearGradient>
                    </defs>
                <path fill="url(#sw-gradient)" d="M20.1,-31.5C26.5,-27.1,32.5,-22.3,36.5,-16C40.6,-9.6,42.8,-1.5,41.1,5.5C39.5,12.6,34.1,18.7,28.8,25C23.5,31.3,18.2,37.8,11.4,40.6C4.6,43.4,-3.9,42.6,-12,40.4C-20.2,38.3,-28.1,34.7,-33.9,28.9C-39.8,23,-43.7,14.9,-44.7,6.6C-45.6,-1.7,-43.5,-10.3,-39.9,-18.3C-36.4,-26.2,-31.3,-33.5,-24.4,-37.6C-17.5,-41.7,-8.7,-42.6,-1,-41.1C6.8,-39.6,13.7,-35.8,20.1,-31.5Z" width="100%" height="100%" transform="translate(50 50)" stroke-width="0" style="transition: all 0.3s ease 0s;" stroke="url(#sw-gradient)"></path>
              </svg>